<svg viewBox = "0 0 84.56 97.34" width="84.56" height="97.34" xmlns="http://www.w3.org/2000/svg"><g transform="matrix(1 0 0 1 42.28 48.67)"  ><g style=""   ><g transform="matrix(1 0 0 1 0.15 -14.7)" id="OBJECTS"  ><path style="stroke: none; stroke-width: 1; stroke-dasharray: none; stroke-linecap: butt; stroke-dashoffset: 0; stroke-linejoin: miter; stroke-miterlimit: 4; fill: rgb(255,255,255); fill-rule: nonzero; opacity: 1;"  transform=" translate(-42.43, -33.97)" d="M 64.71 41.1 L 26.819999999999993 61.84 C 21.909999999999993 64.53 16.099999999999994 60.67 16.099999999999994 54.71 L 16.099999999999994 33.97 C 16.099999999999994 33.97 16.099999999999994 13.23 16.099999999999994 13.23 C 16.099999999999994 7.2700000000000005 21.909999999999993 3.41 26.819999999999993 6.1000000000000005 L 64.71 26.84 C 70.11 29.8 70.11 38.14 64.71 41.1 Z" stroke-linecap="round" /></g><g transform="matrix(1 0 0 1 -1.68 26.49)" id="OBJECTS"  ><path style="stroke: none; stroke-width: 1; stroke-dasharray: none; stroke-linecap: butt; stroke-dashoffset: 0; stroke-linejoin: miter; stroke-miterlimit: 4; fill: rgb(255,255,255); fill-rule: nonzero; opacity: 1;"  transform=" translate(-40.6, -75.16)" d="M 28.38 71.25 L 49.16 59.87 C 51.86 58.39 55.04 60.51 55.04 63.78 L 55.04 75.16 C 55.04 75.16 55.04 86.53999999999999 55.04 86.53999999999999 C 55.04 89.80999999999999 51.85 91.92999999999999 49.16 90.44999999999999 L 28.379999999999995 79.07 C 25.419999999999995 77.44999999999999 25.419999999999995 72.86999999999999 28.379999999999995 71.25 Z" stroke-linecap="round" /></g><g transform="matrix(1 0 0 1 23.31 6.9)" id="OBJECTS"  ><path style="stroke: none; stroke-width: 1; stroke-dasharray: none; stroke-linecap: butt; stroke-dashoffset: 0; stroke-linejoin: miter; stroke-miterlimit: 4; fill: rgb(255,255,255); fill-rule: nonzero; opacity: 1;"  transform=" translate(-65.59, -55.57)" d="M 59.57 53.64 L 69.81 48.04 C 71.14 47.31 72.71000000000001 48.36 72.71000000000001 49.97 L 72.71000000000001 55.57 C 72.71000000000001 55.57 72.71000000000001 61.17 72.71000000000001 61.17 C 72.71000000000001 62.78 71.14000000000001 63.82 69.81 63.1 L 59.57 57.5 C 58.11 56.7 58.11 54.45 59.57 53.65 Z" stroke-linecap="round" /></g><g transform="matrix(1 0 0 1 0.15 -3.08)" id="OBJECTS"  ><path style="stroke: none; stroke-width: 1; stroke-dasharray: none; stroke-linecap: butt; stroke-dashoffset: 0; stroke-linejoin: miter; stroke-miterlimit: 4; fill: rgb(255,255,255); fill-rule: nonzero; opacity: 1;"  transform=" translate(-42.43, -45.59)" d="M 26.82 50.84 L 64.71000000000001 30.100000000000005 C 65.50000000000001 29.670000000000005 66.17 29.100000000000005 66.73 28.470000000000006 C 69.98 32.14000000000001 69.32000000000001 38.580000000000005 64.71000000000001 41.10000000000001 L 26.820000000000007 61.84 C 21.910000000000007 64.53 16.10000000000001 60.67 16.10000000000001 54.71 L 16.10000000000001 43.71 C 16.10000000000001 49.67 21.910000000000007 53.53 26.820000000000007 50.84 Z" stroke-linecap="round" /></g><g transform="matrix(1 0 0 1 -1.68 32.5)" id="OBJECTS"  ><path style="stroke: none; stroke-width: 1; stroke-dasharray: none; stroke-linecap: butt; stroke-dashoffset: 0; stroke-linejoin: miter; stroke-miterlimit: 4; fill: rgb(255,255,255); fill-rule: nonzero; opacity: 1;"  transform=" translate(-40.6, -81.17)" d="M 49.16 90.45 L 28.379999999999995 79.07000000000001 C 25.499999999999996 77.50000000000001 25.429999999999996 73.15 28.129999999999995 71.41000000000001 C 28.209999999999994 71.46000000000001 28.289999999999996 71.52000000000001 28.379999999999995 71.57000000000001 L 49.16 82.95 C 51.86 84.43 55.04 82.31 55.04 79.04 L 55.04 86.54 C 55.04 89.81 51.85 91.93 49.16 90.45 Z" stroke-linecap="round" /></g></g></g></svg>